<svg width="70" height="70" viewBox="0 0 70 70" xmlns="http://www.w3.org/2000/svg">
    <defs>
        <linearGradient x1="15.27%" y1="21.767%" x2="75.371%" y2="66.788%" id="vevcxr1soa">
            <stop stop-color="#303336" offset="0%"/>
            <stop stop-color="#1F252A" offset="100%"/>
        </linearGradient>
    </defs>
    <g fill="none" fill-rule="evenodd">
        <rect fill="url(#vevcxr1soa)" width="70" height="70" rx="12"/>
        <path d="M51.332 41.061H14.366L10.5 34.05l3.866-7.013h36.966l3.866 7.013z" fill="#FEFEFE"/>
        <g fill="#131415" fill-rule="nonzero">
            <path d="M16.797 37.285h1.418v-2.387h1.698c1.438 0 2.237-.968 2.237-2.127 0-1.168-.789-2.147-2.237-2.147h-3.116v6.661zm3.905-4.524c0 .56-.42.919-.979.919h-1.508v-1.838h1.508c.56 0 .98.37.98.92zM27.562 37.285h1.628l-1.498-2.536c.72-.17 1.458-.8 1.458-1.978 0-1.238-.849-2.147-2.237-2.147h-3.116v6.661h1.419v-2.387h1.038l1.308 2.387zm.14-4.524c0 .56-.43.919-.998.919h-1.488v-1.838h1.488c.569 0 .998.36.998.92zM30.987 37.285h1.418v-6.661h-1.418zM40.284 37.285h1.428v-6.661h-1.997l-1.618 4.154-1.618-4.154h-1.987v6.661h1.418v-4.794l1.878 4.794h.619l1.877-4.794zM43.799 37.285h4.714v-1.228h-3.296v-1.548h3.226V33.29h-3.226v-1.448h3.296v-1.218h-4.714z"/>
        </g>
        <g fill="#FFF" fill-rule="nonzero">
            <path d="M16.595 53.375c1.47 0 2.281-.783 2.745-1.585l-1.18-.57c-.27.531-.85.937-1.565.937-1.121 0-1.971-.899-1.971-2.116 0-1.218.85-2.117 1.971-2.117.715 0 1.295.416 1.566.938l1.179-.58c-.454-.802-1.276-1.576-2.745-1.576-1.884 0-3.382 1.353-3.382 3.335 0 1.981 1.498 3.334 3.382 3.334zM19.878 50.04c0 1.943 1.42 3.335 3.363 3.335 1.952 0 3.373-1.392 3.373-3.334 0-1.943-1.42-3.335-3.373-3.335-1.942 0-3.363 1.392-3.363 3.335zm5.325 0c0 1.2-.773 2.117-1.962 2.117s-1.952-.918-1.952-2.116c0-1.208.763-2.117 1.952-2.117s1.962.909 1.962 2.117zM32.052 53.259h1.324v-6.446h-1.372v4.175l-2.987-4.175h-1.41v6.446h1.372v-4.33zM39.123 53.259h1.324v-6.446h-1.372v4.175l-2.986-4.175h-1.411v6.446h1.372v-4.33zM41.749 53.259h4.562V52.07h-3.19v-1.498h3.122v-1.179H43.12v-1.401h3.19v-1.18h-4.562zM50.482 53.375c1.47 0 2.281-.783 2.745-1.585l-1.179-.57c-.27.531-.85.937-1.566.937-1.12 0-1.971-.899-1.971-2.116 0-1.218.85-2.117 1.971-2.117.716 0 1.296.416 1.566.938l1.18-.58c-.455-.802-1.277-1.576-2.746-1.576-1.884 0-3.382 1.353-3.382 3.335 0 1.981 1.498 3.334 3.382 3.334zM55.563 53.259h1.382v-5.238h1.875v-1.208h-5.142v1.208h1.885z"/>
        </g>
        <g fill="#FFF">
            <path d="M52.38 21.101h4.003v4.001H52.38zM56.783 17.5h3.135v3.134h-3.135z"/>
        </g>
    </g>
</svg>
