<?xml version="1.0" encoding="utf-8"?>
<!-- Generator: Adobe Illustrator 26.3.1, SVG Export Plug-In . SVG Version: 6.00 Build 0)  -->
<svg version="1.1" id="Layer_1" xmlns="http://www.w3.org/2000/svg" xmlns:xlink="http://www.w3.org/1999/xlink" x="0px" y="0px"
	 viewBox="0 0 70 70" style="enable-background:new 0 0 70 70;" xml:space="preserve">
<style type="text/css">
	.st0{fill-rule:evenodd;clip-rule:evenodd;fill:#0C2B7E;}
	.st1{fill:#FFFFFF;}
</style>
<path class="st0" d="M12,0h46c6.6,0,12,5.4,12,12v46c0,6.6-5.4,12-12,12H12C5.4,70,0,64.6,0,58V12C0,5.4,5.4,0,12,0z"/>
<g>
	<path class="st1" d="M15.1,28.9c1.4,0,2.9,0,4.3,0c1.7,0,3.1,0.6,4.3,1.8c1.1,1.2,1.7,2.6,1.7,4.2c0,2.4-1.2,4.2-3.3,5.4
		c-0.9,0.5-1.9,0.7-3,0.7c-0.7,0-1.4,0-2.1,0c-0.3,0-0.3,0-0.3-0.2c0-1.2,0-2.3,0-3.5c0-0.2,0-0.3-0.2-0.4c-0.3-0.2-0.6-0.5-1-0.7
		c-0.1-0.1-0.2-0.1-0.2,0c-0.3,0.3-0.7,0.5-1,0.8c0,0-0.1,0.1-0.1,0.1c0,0,0,0.1,0,0.1c0,0.5,0,1,0,1.5c0,0.2,0,0.2-0.2,0.2
		c-0.4,0-0.8,0-1.3,0c-0.2,0-0.2,0-0.2-0.2c0-0.8,0-1.6,0-2.3c0,0,0-0.1,0-0.1c0,0,0.1-0.1,0.1-0.1c0.9-0.6,1.7-1.3,2.6-1.9
		c0.1-0.1,0.2-0.1,0.3,0c0.8,0.6,1.7,1.2,2.6,1.9c0,0,0.1,0.1,0.1,0.1c0,0.1,0,0.1,0,0.2c0,0.9,0,1.8,0,2.8c0,0.1,0,0.1,0,0.2
		c0,0.1,0,0.1,0.1,0.1c0.6,0,1.1,0,1.7-0.1c1.8-0.3,3.3-1.8,3.6-3.5c0.3-1.5-0.1-2.8-1.2-3.9c-0.8-0.8-1.7-1.2-2.8-1.4
		c-0.2,0-0.5,0-0.7,0c-2.8,0-5.7,0-8.5,0c-2.2,0-4,1.5-4.4,3.7c-0.4,2,0.7,3.8,2.3,4.7c0.7,0.4,1.4,0.5,2.2,0.5c1.1,0,2.2,0,3.3,0
		c0.2,0,0.2,0,0.2,0.2c-0.1,0.8-0.7,1.3-1.5,1.3c-0.9,0-1.8,0-2.6,0c-1.4-0.1-2.6-0.7-3.7-1.7c-1-0.9-1.6-2-1.8-3.3
		c-0.3-2,0.2-3.7,1.6-5.1c1-1,2.2-1.6,3.6-1.9c0.3,0,0.6-0.1,1-0.1C12.3,28.9,13.7,28.9,15.1,28.9z"/>
	<path class="st1" d="M30.8,37.6v1c0,0.6,0,1.2,0,1.8c0,0.2,0,0.2-0.2,0.2c-0.5,0-0.9,0-1.4,0c-0.2,0-0.2,0-0.2-0.2c0,0,0-0.1,0-0.1
		v-7.8c0,0,0-0.1,0-0.1c0-0.2,0-0.2,0.2-0.2c0.4,0,0.9,0,1.3,0c0.2,0,0.2,0,0.2,0.2c0,0.2,0,0.4,0,0.6c0,0,0,0,0.1,0
		c0.4-0.6,1-0.9,1.8-0.9c1.3,0,2.2,0.8,2.5,1.8c0.3,1,0.4,2,0,3c-0.3,0.8-0.8,1.3-1.6,1.6c-0.9,0.3-1.7,0.2-2.4-0.4
		C31,37.9,30.9,37.8,30.8,37.6z M33.7,35.4c0-0.5-0.1-0.9-0.2-1.2c-0.3-0.7-0.9-1-1.6-0.8c-0.5,0.1-0.8,0.5-1,1
		c-0.2,0.6-0.2,1.1,0,1.7c0.2,0.7,0.6,1.1,1.2,1.2c0.6,0,1.1-0.2,1.3-0.7C33.6,36.2,33.7,35.8,33.7,35.4z"/>
	<path class="st1" d="M49.6,33C49.6,33,49.7,32.9,49.6,33c0.6-0.8,1.2-1,2-0.9c1.3,0.1,2.1,1,2.4,2c0.2,0.9,0.2,1.8-0.1,2.7
		c-0.2,0.7-0.6,1.2-1.2,1.5c-0.8,0.4-2,0.4-2.7-0.3c-0.1-0.1-0.2-0.2-0.3-0.3c-0.1,0.1,0,0.1,0,0.2c0,0.8,0,1.6,0,2.4
		c0,0.1,0,0.1,0,0.2c0,0.1,0,0.1-0.1,0.1c-0.2,0-0.3,0-0.5,0c-0.3,0-0.6,0-0.9,0c-0.1,0-0.1,0-0.1-0.1c0,0,0-0.1,0-0.1v-7.8
		c0,0,0-0.1,0-0.1c0-0.2,0-0.2,0.2-0.2c0.4,0,0.8,0,1.3,0c0.2,0,0.2,0,0.2,0.2C49.6,32.6,49.6,32.8,49.6,33z M49.6,35.3
		c0,0.3,0,0.7,0.2,1.1c0.2,0.5,0.7,0.8,1.3,0.8c0.6,0,1.1-0.3,1.3-0.9c0.1-0.4,0.2-0.8,0.2-1.2c0-0.4-0.1-0.8-0.3-1.1
		c-0.3-0.5-0.7-0.7-1.2-0.7c-0.5,0-0.9,0.3-1.2,0.8c-0.1,0.1-0.1,0.2-0.1,0.4C49.7,34.7,49.7,35,49.6,35.3z"/>
	<path class="st1" d="M40.6,35.3c0-0.4,0.1-0.9,0.2-1.3c0.3-0.9,1-1.5,1.9-1.8c0.7-0.2,1.5-0.2,2.3,0c0.9,0.3,1.5,0.9,1.8,1.8
		c0.3,0.9,0.3,1.8-0.1,2.7c-0.4,1-1.2,1.5-2.2,1.7c-0.6,0.1-1.1,0.1-1.7-0.1c-1.2-0.3-1.9-1.2-2.1-2.4
		C40.6,35.8,40.6,35.5,40.6,35.3z M45.2,35.3c0-0.3,0-0.5-0.1-0.8c-0.1-0.4-0.2-0.7-0.5-1c-0.2-0.1-0.4-0.2-0.6-0.3
		c-0.2,0-0.4,0-0.6,0c-0.2,0.1-0.4,0.2-0.6,0.3c-0.2,0.1-0.3,0.3-0.4,0.5c-0.3,0.7-0.3,1.4,0,2.1c0.2,0.6,0.6,0.9,1.2,1
		c0.7,0,1.2-0.3,1.4-0.8C45.2,36.1,45.2,35.7,45.2,35.3z"/>
	<path class="st1" d="M54.7,32.2c0.6,0,1.1,0,1.7,0c0.1,0,0.1,0.1,0.2,0.1c0.1,0.5,0.3,0.9,0.4,1.4c0.2,0.8,0.5,1.6,0.8,2.4
		c0,0.1,0,0.1,0.1,0.2c0.1-0.2,0.1-0.3,0.1-0.5c0.4-1.2,0.7-2.3,1.1-3.5c0.1-0.2,0-0.2,0.3-0.2c0.4,0,0.8,0,1.3,0c0.1,0,0.1,0,0.2,0
		c0,0.2-0.1,0.3-0.1,0.5c-0.6,1.8-1.2,3.6-1.8,5.5c-0.1,0.2-0.1,0.2-0.3,0.2c-0.5,0-1,0-1.5,0c-0.1,0-0.2,0-0.2-0.1
		c-0.7-2-1.3-3.9-2-5.9C54.7,32.3,54.7,32.3,54.7,32.2z"/>
	<path class="st1" d="M38,33.3c0.2-0.4,0.5-0.7,0.9-1c0.4-0.2,0.8-0.3,1.2-0.2c0.2,0,0.2,0,0.2,0.2c0,0.5,0,0.9,0,1.4
		c-0.1,0-0.2,0-0.3,0c-0.3,0-0.6,0-0.9,0c-0.6,0.2-0.9,0.6-1.1,1.2c0,0.2-0.1,0.5-0.1,0.7c0,0.8,0,1.7,0,2.5c0,0.1,0,0.1,0,0.2
		c0,0.1,0,0.1-0.1,0.1c0,0-0.1,0-0.1,0c-0.4,0-0.8,0-1.3,0c-0.2,0-0.2,0-0.2-0.2c0-0.4,0-0.8,0-1.2c0-1.5,0-3,0-4.6
		c0-0.3,0-0.2,0.2-0.2c0.4,0,0.8,0,1.2,0c0.2,0,0.2,0,0.2,0.2C38,32.7,38,32.9,38,33.3C38,33.2,38,33.2,38,33.3
		C38,33.3,38,33.3,38,33.3z"/>
	<path class="st1" d="M63.1,33.3c0.1-0.2,0.3-0.5,0.5-0.6c0.5-0.4,1-0.6,1.6-0.6c0.2,0,0.2,0,0.2,0.2c0,0.4,0,0.8,0,1.2
		c0,0.2,0,0.2-0.2,0.1c-0.3,0-0.6,0-0.8,0c-0.6,0.1-1,0.5-1.2,1c-0.1,0.3-0.1,0.7-0.1,1c0,0.8,0,1.6,0,2.4c0,0.1,0,0.1,0,0.2
		c0,0.1,0,0.1-0.1,0.1c-0.2,0-0.4,0-0.6,0c-0.3,0-0.5,0-0.8,0c-0.1,0-0.2,0-0.1-0.1c0-0.5,0-0.9,0-1.4c0-1.5,0-2.9,0-4.4
		c0-0.3,0-0.2,0.2-0.2c0.4,0,0.8,0,1.2,0c0.2,0,0.2,0,0.2,0.2c0,0.3,0,0.5,0,0.8C63,33.2,63,33.2,63.1,33.3z"/>
</g>
</svg>
