<svg width="70" height="70" viewBox="0 0 70 70" xmlns="http://www.w3.org/2000/svg">
    <defs>
        <linearGradient x1="15.27%" y1="21.767%" x2="75.371%" y2="66.788%" id="isb5or12ga">
            <stop stop-color="#303336" offset="0%"/>
            <stop stop-color="#1F252A" offset="100%"/>
        </linearGradient>
    </defs>
    <g fill="none" fill-rule="evenodd">
        <rect fill="url(#isb5or12ga)" width="70" height="70" rx="12"/>
        <g fill="#FFF">
            <path d="M43.976 18.71c-.475-3.385-3.436-4.865-6.292-4.865-2.142 0-4.362.846-5.605 2.459-.793 1.03-1.11 2.273-1.004 3.516v-.026c.29 3.86 3.674 4.494 6.556 4.785 1.85.185 3.754.423 4.072 1.824.052.238.079.45.079.635 0 1.903-2.168 3.014-4.151 3.014-1.718 0-3.807-.9-3.992-2.618v.106l-.026-.396-2.697.052.026.502c.344 3.305 3.807 4.997 6.663 4.997 3.331 0 6.873-2.062 6.873-5.631 0-.37-.052-.82-.132-1.216-.713-2.961-3.86-3.622-6.398-3.94-1.982-.185-4.07-.422-4.203-2.326-.053-.635.079-1.242.449-1.719.74-.952 2.115-1.374 3.358-1.4 1.612-.027 3.41.686 3.78 2.353l2.644-.106zM58.356 39.684c-1.913 0-3.794.79-5.159 2.17a7.244 7.244 0 0 0-2.183 5.19c0 1.956.771 3.795 2.171 5.177 1.377 1.391 3.258 2.182 5.171 2.182 1.929 0 3.839-.795 5.24-2.181a7.338 7.338 0 0 0-.01-10.368c-1.391-1.375-3.301-2.17-5.23-2.17m.002 17.172a9.787 9.787 0 0 1-6.918-2.91 9.66 9.66 0 0 1-2.879-6.902 9.673 9.673 0 0 1 2.89-6.915 9.778 9.778 0 0 1 6.907-2.898c2.575 0 5.116 1.056 6.973 2.898 1.845 1.87 2.856 4.322 2.856 6.915a9.773 9.773 0 0 1-2.846 6.903c-1.867 1.853-4.408 2.91-6.983 2.91M27.91 47.215c0 2.553 1.052 4.87 2.631 6.554a8.782 8.782 0 0 0 6.37 2.738c4.292 0 7.66-2.843 8.713-7.028H43.02c-.948 2.79-3.317 4.396-6.107 4.396-1.764 0-3.37-.764-4.528-1.975a6.738 6.738 0 0 1-1.895-4.685c0-1.896.737-3.528 1.895-4.738 1.158-1.211 2.764-1.975 4.528-1.975 2.711 0 4.974 1.396 5.948 4.16h2.633c-1.053-4.16-4.37-6.792-8.581-6.792-2.501 0-4.764 1.08-6.37 2.738a9.657 9.657 0 0 0-2.632 6.607M63.749 23.283c0 1.481-.45 3.016-1.27 4.127l-3.149-2.857h-3.704l5.133 4.577c-2.83 1.693-6.217 1.27-8.52-1.032-1.19-1.217-1.983-2.937-1.983-4.815 0-1.878.794-3.572 1.984-4.789 1.244-1.243 2.937-2.01 4.762-2.01a6.66 6.66 0 0 1 4.763 2.01c1.19 1.217 1.984 2.91 1.984 4.79zm3.756 8.678-3.068-2.884c1.243-1.614 2.01-3.598 2.01-5.794 0-2.62-1.084-4.974-2.751-6.694-1.72-1.72-4.074-2.804-6.694-2.804a9.378 9.378 0 0 0-6.667 2.804c-1.667 1.72-2.751 4.075-2.751 6.694 0 2.62 1.137 4.92 2.75 6.693 2.912 3.228 8.388 3.73 12.516 1.006l1.745 1.561h2.91v-.582z"/>
        </g>
    </g>
</svg>
