<?xml version="1.0" encoding="utf-8"?>
<!-- Generator: Adobe Illustrator 26.3.1, SVG Export Plug-In . SVG Version: 6.00 Build 0)  -->
<svg version="1.1" id="Layer_1" xmlns="http://www.w3.org/2000/svg" xmlns:xlink="http://www.w3.org/1999/xlink" x="0px" y="0px"
	 viewBox="0 0 70 70" style="enable-background:new 0 0 70 70;" xml:space="preserve">
<style type="text/css">
	.st0{fill-rule:evenodd;clip-rule:evenodd;fill:#3369E9;}
	.st1{fill-rule:evenodd;clip-rule:evenodd;fill:#FFFFFF;}
</style>
<g>
	<path class="st0" d="M12,0h46c6.6,0,12,5.4,12,12v46c0,6.6-5.4,12-12,12H12C5.4,70,0,64.6,0,58V12C0,5.4,5.4,0,12,0z"/>
	<g>
		<path class="st1" d="M36.6,17.6c2.2-1.8,5.2-2.7,8.9-2.7c3.5,0,5.8,1.9,6.7,4.1c0.5,1.1,0.6,2.2,0.4,3.3c-0.2,1.1-1.1,2.1-2.3,2.6
			c-0.6,0.2-1.4,0.2-2.2,0.4c-0.8,0-1.8,0-2.8,0c-1.1,0-2.3,0-3.6-0.1c-1.2,0-2.3-0.1-3.4-0.1c-1.1,0-2.1,0-3.1,0
			c-0.1,0.2-0.1,0.4-0.2,0.6c-0.7,2.2-1.1,5.3-1.3,8.2c-0.1,0.7-0.1,1.4-0.2,2.1c-0.2,1.6-0.5,3.3-0.8,4.3c-0.2,0.5-0.5,1.2-1.2,1.6
			c-0.4,0.2-0.8,0.4-1.3,0.4c-0.5,0-0.8-0.2-1.2-0.4c-3.1-1.9-5.2-5.4-6.1-8.7C21.9,30,22.1,26.1,25,24c1.4-1.1,3.5-1.4,5.8-1.6
			c0.7-0.1,1.5-0.1,2.3-0.1C34.1,20.4,35.1,18.9,36.6,17.6z M36.4,22.3c0.6,0,1.2,0,1.8,0c1.3,0,2.5,0.1,3.5,0.1
			c1.3,0,2.5,0.1,3.5,0.1c1.1,0,1.9,0,2.7,0c0.7,0,1.2-0.1,1.4-0.2c0.1,0,0.4-0.2,0.4-0.5c0.1-0.4,0.1-0.9-0.2-1.5
			C49,19.2,47.7,18,45.3,18c-3.4,0-5.5,0.8-7.2,2C37.7,20.6,37,21.4,36.4,22.3z M32.1,25.3c-0.4,0-0.7,0-0.9,0.1
			c-2.2,0.2-3.6,0.6-4.3,1.2c-1.4,1.1-1.9,3.3-1.2,6.2c0.7,2.6,2.3,5.2,4.3,6.7c0.2-0.7,0.4-1.9,0.6-3.4c0.1-0.6,0.1-1.3,0.2-2
			C31,31.1,31.4,27.8,32.1,25.3z M30.5,39.7L30.5,39.7L30.5,39.7z"/>
		<path class="st1" d="M33.4,52.4c-2.2,1.8-5,2.6-8.9,2.6c-3.5,0-5.8-1.9-6.7-4.1c-0.5-1.1-0.6-2.2-0.4-3.3c0.2-1.1,1.1-2.1,2.3-2.6
			c0.6-0.2,1.4-0.2,2.2-0.4c0.8,0,1.8,0,2.8,0s2.3,0,3.6,0.1c1.2,0,2.3,0.1,3.4,0.1c1.1,0,2.1,0,3.1,0c0.1-0.2,0.1-0.4,0.2-0.6
			c0.7-2.2,1.1-5.3,1.3-8.2c0.1-0.7,0.1-1.4,0.2-2.1c0.2-1.6,0.5-3.3,0.8-4.3c0.2-0.5,0.5-1.2,1.2-1.6c0.4-0.2,0.8-0.4,1.3-0.4
			c0.5,0,0.8,0.2,1.2,0.4c3.1,1.9,5.2,5.4,6.1,8.7c0.9,3.3,0.7,7.2-2.2,9.3c-1.4,1.1-3.5,1.4-5.8,1.6c-0.7,0.1-1.5,0.1-2.3,0.1
			C35.9,49.6,34.9,51.1,33.4,52.4z M33.6,47.7c-0.6,0-1.2,0-1.8,0c-1.3,0-2.5-0.1-3.5-0.1c-1.3,0-2.5-0.1-3.5-0.1s-1.9,0-2.7,0
			c-0.7,0-1.2,0.1-1.4,0.2c-0.1,0-0.4,0.2-0.4,0.5c-0.1,0.4-0.1,0.9,0.2,1.5c0.5,1.2,1.8,2.3,4.1,2.3c3.4,0,5.5-0.8,7.2-2
			C32.3,49.5,33,48.6,33.6,47.7z M37.9,44.8c0.4,0,0.7,0,0.9-0.1c2.2-0.2,3.6-0.6,4.3-1.2c1.4-1.1,1.9-3.3,1.2-6.2
			c-0.7-2.6-2.3-5.2-4.3-6.7c-0.2,0.9-0.4,2.1-0.6,3.6c-0.1,0.6-0.1,1.3-0.2,2C39,38.9,38.6,42.2,37.9,44.8z M39.5,30.3L39.5,30.3
			L39.5,30.3z"/>
	</g>
</g>
</svg>
