<svg xmlns="http://www.w3.org/2000/svg" xmlns:xlink="http://www.w3.org/1999/xlink" width="140.785" height="96.323" viewBox="0 0 140.785 96.323"><defs><clipPath id="a"><rect width="48.486" height="48.754" fill="none"/></clipPath><clipPath id="b"><rect width="86.396" height="90.796" fill="none"/></clipPath><linearGradient id="c" x1="-0.072" y1="0.5" x2="0.925" y2="0.5" gradientUnits="objectBoundingBox"><stop offset="0.122" stop-color="#666" stop-opacity="0.102"/><stop offset="0.801" stop-color="#666" stop-opacity="0"/></linearGradient></defs><g transform="translate(-58.071 -30.294)"><path d="M101.51,4.837l4.022,4.722L88.969,22.911l-8.342-10.5-.027.022-.127-.16L51.466,35.652,46.892,29.9l0,0-5.441-6.85L0,56.458l5.441,6.849L40.093,35.377,50.107,47.983l1.386-1.117L79.141,24.58,87.6,35.224l.052-.042.014.018,23.544-18.978,4.075,4.785L123.348,0Z" transform="translate(75.508 41.08)" fill="#fb6fbb"/><g transform="translate(120.587 77.863)"><g clip-path="url(#a)"><rect width="31.54" height="13.501" transform="matrix(0.884, -0.468, 0.468, 0.884, 11.018, 26.418)" fill="#2fac66"/><path d="M137.877,161.993l27.874-14.76,6.318,11.932L144.2,173.925Zm-1.709-.526,7.5,14.166,30.108-15.943-7.5-14.166Z" transform="translate(-126.859 -135.575)" fill="#269e57"/><path d="M348.459,296.306a4.925,4.925,0,1,1-6.657-2.048,4.925,4.925,0,0,1,6.657,2.048" transform="translate(-315.993 -273.607)" fill="#2fac66"/><path d="M326.7,287.679c-1.218-6.322,8.2-8.347,9.646-2,1.218,6.322-8.2,8.346-9.646,2m-.909.189c1.777,7.518,12.836,5.21,11.463-2.383-1.779-7.518-12.835-5.21-11.463,2.383" transform="translate(-303.41 -261.673)" fill="#269e57"/><path d="M366.023,305.582l-.716.379a.3.3,0,0,0-.127.412l.346.654a2.071,2.071,0,0,0-.875,2.564c.535,1.01,1.776.915,3.035.663,1.142-.218,1.415-.024,1.531.194a.541.541,0,0,1-.048.523,1.847,1.847,0,0,1-.745.651,3.993,3.993,0,0,1-1.726.469.3.3,0,0,0-.3.319l.034.734a.306.306,0,0,0,.3.291,4.818,4.818,0,0,0,1.842-.454l.332.626a.3.3,0,0,0,.412.127l.728-.385a.3.3,0,0,0,.127-.412l-.36-.68a2.364,2.364,0,0,0,1.061-2.278,1.545,1.545,0,0,0-.146-.408c-.582-1.1-1.826-1.028-2.964-.812-1.226.227-1.513.15-1.636-.083a.42.42,0,0,1,.015-.381,1.466,1.466,0,0,1,.683-.608,3.619,3.619,0,0,1,1.494-.438.3.3,0,0,0,.281-.311l-.017-.731a.3.3,0,0,0-.326-.3,4.481,4.481,0,0,0-1.509.393l-.314-.593a.3.3,0,0,0-.412-.127" transform="translate(-339.552 -284.657)" fill="#269e57"/><path d="M524.764,266.394a1.881,1.881,0,1,1-2.543-.782,1.881,1.881,0,0,1,2.543.782" transform="translate(-485.586 -247.249)" fill="#269e57"/><path d="M249.736,412.028a1.881,1.881,0,1,1-2.543-.782,1.881,1.881,0,0,1,2.543.782" transform="translate(-229.361 -382.927)" fill="#269e57"/><rect width="31.54" height="13.502" transform="matrix(0.617, -0.787, 0.787, 0.617, 1.775, 26.594)" fill="#2fac66"/><path d="M1.775,26.595,21.238,1.776l10.624,8.332L12.4,34.926ZM0,26.809,12.614,36.7,33.637,9.893,21.024,0Z" transform="translate(0 -0.001)" fill="#269e57"/><path d="M181.937,197.424a4.925,4.925,0,1,1-6.914.836,4.925,4.925,0,0,1,6.914-.836" transform="translate(-162.079 -182.949)" fill="#2fac66"/><path d="M162.74,191.968c-4.9-4.226,1.269-11.627,6.313-7.56,4.9,4.226-1.269,11.627-6.313,7.56m-.595.712c6.089,4.78,13.29-3.85,7.5-8.985-6.089-4.779-13.289,3.85-7.5,8.985" transform="translate(-149.078 -169.838)" fill="#269e57"/><path d="M191.6,215.5a.3.3,0,0,0,.052.428l.582.457a2.089,2.089,0,0,0,.2,2.668l.038.031c.9.706,1.995.114,3.042-.628.955-.664,1.283-.6,1.477-.445a.536.536,0,0,1,.169.5,1.847,1.847,0,0,1-.416.9,3.993,3.993,0,0,1-1.386,1.13.3.3,0,0,0-.143.413l.329.657a.3.3,0,0,0,.394.143,4.818,4.818,0,0,0,1.5-1.164l.557.437a.3.3,0,0,0,.428-.052l.508-.648a.306.306,0,0,0-.052-.428l-.606-.475a2.2,2.2,0,0,0-.222-2.8l-.035-.028c-.979-.768-2.086-.2-3.038.463-1.028.706-1.321.752-1.529.589a.421.421,0,0,1-.141-.355,1.467,1.467,0,0,1,.377-.833,3.62,3.62,0,0,1,1.187-1.008.3.3,0,0,0,.13-.4l-.313-.661a.3.3,0,0,0-.418-.139,4.484,4.484,0,0,0-1.219.973l-.528-.414a.3.3,0,0,0-.428.052Z" transform="translate(-178.439 -199.57)" fill="#269e57"/><path d="M317.555,118.85a1.881,1.881,0,1,1-2.641.319,1.881,1.881,0,0,1,2.641-.319" transform="translate(-293.011 -110.351)" fill="#269e57"/><path d="M125.511,363.736a1.881,1.881,0,1,1-2.641.319,1.881,1.881,0,0,1,2.641-.319" transform="translate(-114.096 -338.496)" fill="#269e57"/></g></g><g transform="translate(58.071 30.294)"><path d="M149.29,130.636l-31.61-3.073-28.317.146-27.439,3.11.658-92.853,86.707-.8Z" transform="translate(-59.134 -35.682)" fill="rgba(0,0,0,0.1)"/><g transform="translate(0 0)"><g transform="translate(0.878 0.878)"><g clip-path="url(#b)"><g transform="translate(-5.942 -3.861)"><rect width="89.659" height="93.029" transform="translate(4.422 3.484)" fill="#f2efeb"/><g transform="translate(51.967 67.742)"><path d="M265.816,331.633a.658.658,0,0,1-.6-.38l-2.278-4.878a.659.659,0,0,1,1.193-.557l2.075,4.442,14.852-1.914a.659.659,0,0,1,.169,1.307L265.9,331.628A.689.689,0,0,1,265.816,331.633Z" transform="translate(-262.879 -325.438)" fill="#c2c2c2"/></g><g transform="translate(54.236 66.181)"><path d="M273.874,326a.659.659,0,0,1-.267-1.261l14.351-6.357a.659.659,0,1,1,.533,1.2l-14.351,6.357A.656.656,0,0,1,273.874,326Z" transform="translate(-273.215 -318.326)" fill="#c2c2c2"/></g><g transform="translate(42.611 6.84)"><path d="M228.672,53.41a.656.656,0,0,1-.307-.076l-7.756-4.1a.659.659,0,1,1,.615-1.165l7.756,4.1a.659.659,0,0,1-.308,1.241Z" transform="translate(-220.258 -47.995)" fill="#c2c2c2"/></g><path d="M42.427,38.908s16.651.616,18.191,1.083,3.359-9.172,3.359-9.172l-1.92-8.9-21.684.7" transform="translate(-37.248 -20.807)" fill="#f2dcbd"/><path d="M271.852,151.26l1.065,10.626,9.788-2.259,9.317-5.818-1.4-6.932,1.693-6.656s-10.231-.272-13.587,2.548c-2.245,2.641-.443,6.422-.443,6.422Z" transform="translate(-217.915 -113.131)" fill="#f2dcbd"/><path d="M42.728,299.46l3.521,10.945-2.565,1.065,1.608,9.642-11.2,5.543,1.849-22.1A13.526,13.526,0,0,1,42.728,299.46Z" transform="translate(-32.344 -237.42)" fill="#f2dcbd"/><path d="M372.336,193.563c-.984.587-16.746,8.71-17.118,9.214l5.38,9.271c.01.016-11.595,3.5-11.595,3.5l7.193,16.395,17.43-6.25Z" transform="translate(-278.131 -154.769)" fill="#f2dcbd"/><path d="M152.03,375.137c-.957-.909-5.666-7.394-5.05-7.512s5.81.645,7.042,0,13.09-5.159,14.688-6.115a14.034,14.034,0,0,0,4.323,0l6.381-2.006c.21-.066-1.141,13.068-.437,13.55s13.511-3.62,14.039-3.356-1.311,6.933-1.311,6.933l7.211-1.729s-4.334-8.712-4.4-9.243-1.484-7.085-1.484-7.085,12.928-.31,14.336-1.278,8.363-3.125,8.363-3.125l.792,24.252Z" transform="translate(-120.411 -280.122)" fill="#8cc63f"/><path d="M302.939,22.32c-2.4,1.49-7.619,3.2-5.1,11.173a19.487,19.487,0,0,0,2.876,1.107,14.2,14.2,0,0,0,3.111.293,76.834,76.834,0,0,0,9.213-3.7c.059-.176.646-9.272.646-9.272Z" transform="translate(-237.676 -20.807)" fill="#8cc63f"/><path d="M112.091,275.478l-5.018-6.778,2.553-2.465-1.989-7.407L122.39,254.7l4.93-3.7,1.409,2.729,6.866-3.7L142.9,248.1l2.062,3.169-14.386,8.187.7,2.465S115.348,275.742,112.091,275.478Z" transform="translate(-89.307 -197.335)" fill="#8cc63f"/><path d="M141.428,143.718c0,.352,0,6.279.059,6.631s3.7,8.157,3.991,8.627,3.345,4.695,3.345,4.695,7.805-3.17,10.153-5.869c2.406-2.171,6.4-5.634,6.4-5.634a51.409,51.409,0,0,0,0-5.432c-.092-.364-1.468-7.713-1.468-7.713a42.12,42.12,0,0,0-8.567,4.4C153.869,144.246,142.132,143.483,141.428,143.718Z" transform="translate(-116.121 -112.201)" fill="#8cc63f"/><g transform="translate(2.591)"><path d="M39.01,81.359l-1.066-2.166a100.414,100.414,0,0,1,10.078-3.818c9.725-3.352,23.043-7.943,31.207-15.137,5.878-5.18,10.352-9.451,13.077-13.461,2.751-4.048,3.561-7.565,2.628-11.4-1.234-5.072-1.472-8.559-.775-11.307.841-3.311,3.094-5.676,6.889-7.232l.916,2.234C96.177,21.44,95,25.41,97.28,34.8c2.37,9.745-5.325,17.44-16.455,27.248-8.522,7.51-22.1,12.19-32.016,15.608A99.472,99.472,0,0,0,39.01,81.359Z" transform="translate(-37.944 -16.834)" fill="#29abe2"/></g><g transform="translate(3.991 4.69)"><path d="M80.53,51.733c-1.337,0-1.6-.208-1.718-.305-.261-.21-.508-.407-.675-3.772-.069-1.385-.094-2.755-.1-3.151-.268-.635-2.133-3.975-2.779-4.938-1.581.346-8.316,2.1-12.482,3.182-5.15,1.34-5.159,1.34-5.3,1.34-.106.005-1.5.117-3.116.247-3.028.242-7.6.608-9.341.72a.658.658,0,0,1-.085-1.314c1.727-.112,6.3-.477,9.321-.719,2.249-.18,2.927-.234,3.139-.247.338-.076,2.628-.672,5.047-1.3,12.931-3.364,13-3.344,13.289-3.246.268.089.429.143,2.049,3.008,1.571,2.777,1.571,2.991,1.571,3.163a50.511,50.511,0,0,0,.355,5.982,20.308,20.308,0,0,0,3.321-.123.659.659,0,0,1,.134,1.31C81.995,51.688,81.147,51.733,80.53,51.733Z" transform="translate(-44.322 -38.201)" fill="#c2c2c2"/></g><g transform="translate(37.002 1.955)"><path d="M196.066,35.333a.659.659,0,0,1-.568-.991c.474-.812,1.35-2.815,1.681-3.581L194.8,26.735a.659.659,0,0,1,1.134-.671l2.553,4.314a.659.659,0,0,1,.04.593c-.051.12-1.256,2.956-1.886,4.036A.659.659,0,0,1,196.066,35.333Z" transform="translate(-194.704 -25.741)" fill="#c2c2c2"/></g><g transform="translate(4.768 4.685)"><path d="M48.517,68.893a.659.659,0,0,1-.4-1.184c.813-.615,17.545-12.866,18.5-13.21a1.663,1.663,0,0,1,.607-.054c1.133.016,4.575.06,7.337-4.26A22.019,22.019,0,0,0,77.628,38.86a.659.659,0,0,1,1.316-.054A22.96,22.96,0,0,1,75.672,50.9c-3.156,4.937-7.15,4.885-8.464,4.867-.059,0-.127,0-.179,0-1.458.832-16.239,11.579-18.116,13A.655.655,0,0,1,48.517,68.893Z" transform="translate(-47.858 -38.175)" fill="#c2c2c2"/></g><g transform="translate(25.529 6.915)"><path d="M144.974,63a.659.659,0,0,1-.658-.634c-.007-.193-.177-4.741-.177-5.159-.013-.206-.277-1.464-.451-2.3a21.342,21.342,0,0,1-.428-2.26c-.018-.146-.165-.7-.284-1.145a13.3,13.3,0,0,1-.538-2.514.659.659,0,1,1,1.317,0,16.466,16.466,0,0,0,.493,2.175,7.565,7.565,0,0,1,.329,1.463c.014.167.237,1.233.4,2.01a21.739,21.739,0,0,1,.479,2.567c0,.327.127,3.8.176,5.11A.658.658,0,0,1,145,63Z" transform="translate(-142.438 -48.334)" fill="#c2c2c2"/></g><g transform="translate(47.125 1.955)"><path d="M243,62.573a.693.693,0,0,1-.079,0,.659.659,0,0,1-.575-.732,16.372,16.372,0,0,0,.162-2.549c-.26-.764-1.636-7.616-1.69-8.209-.043-.479.3-1.448,1.336-4.116.339-.869.659-1.69.737-1.982.241-.9,1.277-8.346,1.278-9.162-.076-.351.089-.872,1.237-3.721.32-.8.719-1.786.763-1.986a13.609,13.609,0,0,1,2.687-4.153.659.659,0,0,1,.98.88,13.746,13.746,0,0,0-2.375,3.533,20.237,20.237,0,0,1-.833,2.218c-.4,1-1.07,2.657-1.15,3.067a34.879,34.879,0,0,1-.519,4.661c-.285,2.046-.656,4.484-.794,5-.092.345-.357,1.031-.783,2.121a30.654,30.654,0,0,0-1.249,3.538c.081.716,1.443,7.356,1.614,7.86.05.12.221.538-.092,3.154A.659.659,0,0,1,243,62.573Z" transform="translate(-240.818 -25.741)" fill="#c2c2c2"/></g><g transform="translate(58.887 25.944)"><path d="M321.733,206.862a.878.878,0,0,1-.86-.7c-.436-1.351-9.145-21.7-16.152-38.076-4.855-11.345-9.048-21.144-10.084-23.665a.827.827,0,0,1-.029-.081c-.6-1.991.206-5.232,1.265-6.29s5.249-2.325,6.772-2.466c2.1-.2,26.271-.546,27.3-.561h.013a.878.878,0,0,1,.013,1.756c-.251,0-25.125.365-27.162.554a16.884,16.884,0,0,0-5.692,1.959,6.331,6.331,0,0,0-.836,4.505c1.061,2.577,5.232,12.323,10.057,23.6,15.487,36.191,16.276,38.176,16.276,38.588A.878.878,0,0,1,321.733,206.862Z" transform="translate(-294.404 -135.023)" fill="#ffc316"/></g><g transform="translate(28.134 55.404)"><path d="M158.024,286.247a.876.876,0,0,1-.695-.34c-2.864-3.7-2.955-4.238-2.989-4.442a42.392,42.392,0,0,1,.286-6.371c.15-.525.755-1.178,2.912-3.315.81-.8,1.649-1.633,2.21-2.255a.878.878,0,1,1,1.3,1.176c-.595.659-1.45,1.507-2.278,2.327a31.69,31.69,0,0,0-2.469,2.594c-.134.716-.285,4.774-.236,5.507a41.369,41.369,0,0,0,2.648,3.7.878.878,0,0,1-.693,1.416Z" transform="translate(-154.307 -269.233)" fill="#ffc316"/></g><g transform="translate(34.097 69.033)"><path d="M218.573,363.71a.659.659,0,0,1-.658-.632,34.838,34.838,0,0,1,2.825-15.193l.074-.169c-.111-.871-1.221-5.812-2.017-9.263l-19.48,6.125a.659.659,0,0,1-.25.028l-11-.88a.659.659,0,0,1-.554-.4l-1.675-3.96-.972.432a.658.658,0,0,1-.891-.389l-2.464-7.219a.658.658,0,1,1,1.246-.426l2.232,6.537.927-.412a.659.659,0,0,1,.874.345l1.781,4.209,10.478.838,20.037-6.3a.659.659,0,0,1,.839.479c2.325,10.014,2.245,10.331,2.2,10.52a3.027,3.027,0,0,1-.17.429,33.508,33.508,0,0,0-2.716,14.614.659.659,0,0,1-.632.684Z" transform="translate(-181.471 -331.318)" fill="#c2c2c2"/></g><g transform="translate(44.353 47.871)"><path d="M255.743,263.248a.878.878,0,0,1-.832-.6c-.06-.178-6.032-17.792-7.16-20.917a7.041,7.041,0,0,0-4.52-4.419c-5.038-1.754-12.387.605-13.7,1.417a.878.878,0,1,1-.924-1.493c1.255-.777,9.216-3.666,15.2-1.583a8.723,8.723,0,0,1,5.594,5.482c1.134,3.14,7.111,20.772,7.171,20.949a.879.879,0,0,1-.832,1.16Z" transform="translate(-228.192 -234.916)" fill="#ffc316"/></g><g transform="translate(77.188 70.046)"><path d="M378.651,343.94a.878.878,0,0,1-.355-1.682l12.765-5.634a.885.885,0,0,1,.222-.065l4.049-.616a.878.878,0,0,1,.264,1.736l-3.934.6-12.658,5.587A.872.872,0,0,1,378.651,343.94Z" transform="translate(-377.773 -335.934)" fill="#ffc316"/></g><g transform="translate(36.783 67.229)"><path d="M197.972,331.559c-.607,0-.953-.679-1.407-1.57-.345-.677-.781-1.592-1.2-2.477-.6-1.259-1.22-2.56-1.533-3.082a.878.878,0,0,1,1.506-.9c.356.594.966,1.874,1.612,3.23.43.9.973,2.042,1.332,2.728l.42-.263c2.619-1.638,8.069-5.045,10.6-5.792a.878.878,0,1,1,.5,1.684c-2.3.679-7.812,4.125-10.166,5.6a8.256,8.256,0,0,1-1.338.791A1.01,1.01,0,0,1,197.972,331.559Z" transform="translate(-193.704 -323.101)" fill="#ffc316"/></g><g transform="translate(41.225 1.296)"><path d="M225.341,90.72a.878.878,0,0,1-.8-.509c-.56-1.209-10.148-23.4-10.534-25.069-.4-1.739,1.032-36.941,1.328-41.583a.878.878,0,0,1,1.752.112c-.376,5.889-1.662,39.3-1.366,41.093.29,1.249,8.177,19.657,10.08,23.965.562-.215,1.392-.535,2.337-.9,6.3-2.43,19.421-7.488,24.079-8.949,6.051-1.9,13.526-4.917,14.9-5.87a.878.878,0,1,1,1,1.444c-1.671,1.157-9.432,4.236-15.378,6.1-4.6,1.445-17.686,6.488-23.973,8.912-2.063.8-2.983,1.15-3.154,1.207A.872.872,0,0,1,225.341,90.72Z" transform="translate(-213.94 -22.737)" fill="#ffc316"/></g><g transform="translate(70.666 1.515)"><path d="M353.963,46.079a.656.656,0,0,1-.421-.152c-.822-.684-4.945-4.187-5.325-6.012a76.371,76.371,0,0,1-.073-9.3c.048-2.495.093-4.852.059-6.206a.659.659,0,0,1,.642-.675h.017a.659.659,0,0,1,.658.642c.035,1.384-.011,3.755-.059,6.264-.069,3.583-.155,8.042.046,9,.211,1.012,2.979,3.689,4.878,5.267a.659.659,0,0,1-.421,1.165Z" transform="translate(-348.065 -23.737)" fill="#c2c2c2"/></g><g transform="translate(73.287 36.587)"><path d="M375.883,188.6a.658.658,0,0,1-.56-.311,26.781,26.781,0,0,0-2.436-3.464,54.406,54.406,0,0,0-6.011.892,37.906,37.906,0,0,1-6.293.878.659.659,0,1,1,.152-1.308,48.653,48.653,0,0,0,5.91-.867c5.389-.956,6.423-1.068,6.907-.745a21.4,21.4,0,0,1,2.89,3.92.659.659,0,0,1-.559,1.006Z" transform="translate(-360.001 -183.507)" fill="#c2c2c2"/></g><g transform="translate(14.032 60.121)"><path d="M93.514,302.8a.659.659,0,0,1-.659-.67c-.126-.756-1.751-6.839-2.768-10.577a.659.659,0,1,1,1.271-.346c.007.027.736,2.708,1.442,5.362.415,1.561.74,2.807.967,3.7.136.536.238.954.3,1.242.12.525.223.979-.268,1.218A.655.655,0,0,1,93.514,302.8Zm-.29-1.25a.647.647,0,0,0-.191.141A.65.65,0,0,1,93.224,301.546Z" transform="translate(-90.063 -290.718)" fill="#c2c2c2"/></g><g transform="translate(3.537 34.512)"><path d="M43.129,206.564a.878.878,0,0,1-.685-1.427,12.7,12.7,0,0,1,6.042-4.275c.617-.206,1.758-.581,3.141-1.036,3.9-1.284,10.436-3.434,11.394-3.817,1.524-.61,3.259-1.338,4.653-1.923.887-.373,1.588-.667,2.007-.835a.877.877,0,0,1,.831.1c.245.172.5.353.742.533a15.01,15.01,0,0,0,1.525,1.024c.945-.649,4.345-3.322,6.446-4.974,1.94-1.525,3.051-2.4,3.325-2.58a123.707,123.707,0,0,0,9.288-9.677c-.4-.486-1.217-1.383-1.928-2.135a.878.878,0,1,1,1.276-1.207c2.44,2.579,2.49,2.853,2.538,3.117.1.528.166.909-4.832,6.092-1.915,1.986-4.846,4.922-5.369,5.271-.23.153-1.747,1.346-3.213,2.5-6.352,4.995-6.8,5.28-7.156,5.369-.735.185-1.512-.346-2.933-1.378l-.329-.238c-.408.169-.945.394-1.539.643-1.4.588-3.143,1.319-4.681,1.934-1.01.4-7.321,2.48-11.5,3.855-1.381.454-2.518.829-3.135,1.034a10.851,10.851,0,0,0-5.226,3.706A.877.877,0,0,1,43.129,206.564Z" transform="translate(-42.252 -174.056)" fill="#ffc316"/></g><g transform="translate(2.715 66.261)"><path d="M39.387,329.513a.878.878,0,0,1-.247-1.721l.541-.157c10.918-3.15,13.574-4.507,14.186-5.035,1.635-1.413,4.654-3.383,5.856-3.383.473,0,3.208-.32,4.82-.521a.878.878,0,1,1,.218,1.742c-.434.054-4.238.527-5.02.535a16.424,16.424,0,0,0-4.727,2.955c-1.3,1.121-6.154,2.885-14.847,5.394l-.532.154A.884.884,0,0,1,39.387,329.513Z" transform="translate(-38.509 -318.689)" fill="#ffc316"/></g><g transform="translate(6.867 31.249)"><path d="M58.081,170.679a.667.667,0,0,1-.108-.009.659.659,0,0,1-.543-.757L59.1,159.741a.658.658,0,1,1,1.3.214l-1.673,10.173A.659.659,0,0,1,58.081,170.679Z" transform="translate(-57.422 -159.189)" fill="#c2c2c2"/></g><g transform="translate(7.982 33.424)"><path d="M72.181,174.368c-.742,0-2.808-.18-9.111-1.048a.658.658,0,1,1,.18-1.3c3.825.527,8.145,1.059,8.929,1.049.252-.141,1.026-.614,1.777-1.072a38.513,38.513,0,0,1,5.007-2.859c.736-.184,7.518.379,10.4.629a.658.658,0,0,1-.114,1.312c-4.382-.38-9.342-.738-9.977-.66-.469.158-3.173,1.811-4.631,2.7-1.349.824-1.836,1.12-2.009,1.193A1,1,0,0,1,72.181,174.368Z" transform="translate(-62.502 -169.097)" fill="#c2c2c2"/></g><g transform="translate(3.537 37.916)"><path d="M43.13,240.027a.878.878,0,0,1-.4-1.661c2.809-1.422,5.3-2.464,7.715-3.472A61.369,61.369,0,0,0,69.32,223.575c7.4-6.317,17.095-10.692,25.653-14.553a125.849,125.849,0,0,0,11.909-5.838c10.036-6,22.318-12.471,25.769-13.58a.878.878,0,0,1,.537,1.672c-3.291,1.057-15.637,7.577-25.406,13.415a126.774,126.774,0,0,1-12.088,5.932c-8.451,3.812-18.029,8.133-25.234,14.288a62.863,62.863,0,0,1-19.335,11.6c-2.383,1-4.847,2.026-7.6,3.418A.872.872,0,0,1,43.13,240.027Z" transform="translate(-42.251 -189.561)" fill="#ffc316"/></g><g transform="translate(73.287 12.313)"><path d="M360.658,100.289a.659.659,0,0,1-.146-1.3,31.3,31.3,0,0,0,6.392-3.8l.152-.115c2.252-1.714,5.335-4.062,5.34-11.3a21.008,21.008,0,0,1,0-4.675l0-.025a25.521,25.521,0,0,1,1.335-3.722.658.658,0,0,1,.614-.421h2.314l3.971-1.929a.658.658,0,1,1,.575,1.184l-4.107,2a.658.658,0,0,1-.288.066H374.8c-.506,1.318-1.008,2.667-1.089,2.952,0,.047-.012.089-.02.13a25.283,25.283,0,0,0,.023,4.39c0,.012,0,.025,0,.038,0,7.909-3.527,10.594-5.86,12.371l-.15.114a30.977,30.977,0,0,1-6.9,4.038A.664.664,0,0,1,360.658,100.289Z" transform="translate(-360 -72.927)" fill="#c2c2c2"/></g><g transform="translate(89.145 1.515)"><path d="M433.2,37.847a.659.659,0,0,1-.657-.629l-.294-6.456a.659.659,0,0,1,.059-.3c.023-.05,2.295-5.04,2.874-6.334a.659.659,0,0,1,1.2.538c-.525,1.172-2.432,5.364-2.812,6.2l.287,6.3a.659.659,0,0,1-.628.688Z" transform="translate(-432.243 -23.736)" fill="#c2c2c2"/></g><g transform="translate(3.508 1.736)"><path d="M77.81,67.54a.936.936,0,0,1-.9-.42c-.664-1-7.106-14.862-7.4-16.228a46.177,46.177,0,0,0-3.475-6.346,29.8,29.8,0,0,0-6.23-1.939c-.423,0-2.3-.083-4.908-.2-4.264-.189-10.709-.474-11.864-.419a.878.878,0,1,1-.084-1.754c1.235-.059,7.218.206,12.025.418,2.386.106,4.446.2,4.83.2,1.007,0,6.883,1.693,7.552,2.53.347.434,3.558,5.689,3.87,7.142C71.5,51.7,76.891,63.33,78.155,65.751c.571-.076,1.623-.272,2.547-.466a6.9,6.9,0,0,1,1.265-.555c.864-.3,1.757-.619,4.16-3.022a61.542,61.542,0,0,0,5.736-6.376c.1-2.478,1.2-25.124,7.25-30.375a.878.878,0,0,1,1.151,1.327c-5.086,4.413-6.57,25.341-6.652,29.278,0,.29,0,.551-1.853,2.7-1.227,1.421-2.786,3.087-4.39,4.691-2.685,2.685-3.818,3.085-4.818,3.437a5.1,5.1,0,0,0-1.067.477.872.872,0,0,1-.275.11c-.034.007-.838.178-1.671.331A11.032,11.032,0,0,1,77.81,67.54Z" transform="translate(-42.118 -24.742)" fill="#ffc316"/></g><g transform="translate(71.83 2.44)"><path d="M364,83.668a.878.878,0,0,1-.744-.41c-5.139-8.162-11-19.371-9.716-26.418,1.064-5.856,7.209-13.742,10.778-17.921l.155-.182c.359-.473.84-3.222,1.159-5.04.5-2.866.835-4.658,1.35-5.378a.878.878,0,0,1,1.429,1.02h0A25.585,25.585,0,0,0,367.365,34c-.554,3.16-.924,5.135-1.548,5.872l-.16.188c-5.876,6.883-9.662,13.114-10.385,17.1-.921,5.065,2.444,14,9.474,25.168A.878.878,0,0,1,364,83.668Z" transform="translate(-353.365 -27.95)" fill="#ffc316"/></g><path d="M27.811,106.369c5.957-.205,14.553-.031,15.047,2.347.825,3.971-6.861,3.287-7.594,7.235-.566,3.049-9.126,4.686-9.126,4.686Z" transform="translate(-26.139 -86.666)" fill="#29abe2"/><g transform="translate(5.283 80.811)"><path d="M50.867,400.422a.659.659,0,0,1-.245-1.27c.443-.177,1.3-.523,2.417-.976,14.886-6.021,17.984-7.169,18.458-7.169h0c.17,0,.491.027.977.066,1.332.106,4.873.39,5.8-.012,1.357-.591,15.142-5.823,15.728-6.046a.658.658,0,0,1,.467,1.231c-.143.054-14.341,5.444-15.669,6.022-1.13.492-3.91.319-6.426.117-.367-.029-.689-.055-.84-.061-1.167.265-13.376,5.2-18,7.073-1.122.453-1.978.8-2.422.977A.657.657,0,0,1,50.867,400.422Z" transform="translate(-50.208 -384.972)" fill="#c2c2c2"/></g><g transform="translate(3.332 40.557)"><path d="M64.726,208.9c-.441,0-.942-.009-1.51-.027a33.209,33.209,0,0,1-4.485-.375c-.175-.058-.691-.23-3.061-2.805-.358.129-.836.309-1.235.486-.691.308-1.926.106-5.056-.614-.729-.168-1.418-.326-1.763-.376a11.926,11.926,0,0,1-2.494-.87,11.08,11.08,0,0,0-2.929-.97.878.878,0,0,1,0-1.756A11.1,11.1,0,0,1,45.8,202.7a12.038,12.038,0,0,0,2.061.75c.418.06,1.109.219,1.908.4a22.476,22.476,0,0,0,3.988.7c.816-.359,1.844-.7,1.888-.717a.878.878,0,0,1,.929.243,30.406,30.406,0,0,0,2.74,2.753c1.006.187,6.579.491,7.646.156a8.589,8.589,0,0,0,.506-.784c.453-.757.881-1.471,1.6-1.676.744-.213,6.959-.718,8.4-.718a.878.878,0,1,1,0,1.756c-1.444,0-7.072.483-7.874.642a5.333,5.333,0,0,0-.614.9,7.918,7.918,0,0,1-.769,1.133C67.96,208.525,67.633,208.9,64.726,208.9Z" transform="translate(-41.316 -201.592)" fill="#ffc316"/></g><g transform="translate(56.519 42.382)"><path d="M289.567,212.84h0a2.975,2.975,0,0,0-5.95,0h0s0,.007,0,.01,0,.022,0,.033a2.944,2.944,0,0,0,.022.359,10.16,10.16,0,0,0,2.953,5.608,10.163,10.163,0,0,0,2.954-5.608,3.025,3.025,0,0,0,.022-.359c0-.011,0-.022,0-.033S289.567,212.843,289.567,212.84Zm-2.976,1.616a1.4,1.4,0,1,1,1.4-1.4A1.4,1.4,0,0,1,286.591,214.456Z" transform="translate(-283.616 -209.906)" fill="#f15a24"/><path d="M298.571,213.056a1.4,1.4,0,0,1-1.4,1.4v4.393a10.163,10.163,0,0,0,2.954-5.608,3.026,3.026,0,0,0,.022-.359c0-.011,0-.022,0-.033s0-.007,0-.01h0a2.975,2.975,0,0,0-2.975-2.934v1.751A1.4,1.4,0,0,1,298.571,213.056Z" transform="translate(-294.196 -209.906)" fill="#e04911" opacity="0.7"/><path d="M292.231,253.894c0,.176-.865.319-1.933.319s-1.933-.143-1.933-.319.866-.319,1.933-.319S292.231,253.718,292.231,253.894Z" transform="translate(-287.323 -243.989)" fill="#c2c2c2" opacity="0.5"/></g></g></g></g><path d="M137.361,122.976H49.209V30.424h88.152Zm-86.4-1.756H135.6V32.18H50.965Z" transform="translate(-49.209 -30.424)" fill="#fff"/><rect width="29.677" height="92.552" transform="translate(58.475)" fill="rgba(0,0,0,0.1)"/><rect width="28.798" height="92.552" transform="translate(29.677)" fill="url(#c)"/></g></g></g></svg>