<svg xmlns="http://www.w3.org/2000/svg" xmlns:xlink="http://www.w3.org/1999/xlink" width="127.494" height="116.805" viewBox="0 0 127.494 116.805"><defs><clipPath id="a"><rect width="97.502" height="86.975" fill="none"/></clipPath><clipPath id="b"><rect width="48.972" height="47.596" fill="none"/></clipPath><clipPath id="d"><path d="M361.905,1298.28a22.759,22.759,0,0,0,10.928,2.812h.068a22.573,22.573,0,0,0,6.116-.845l2.976-.84a22.783,22.783,0,0,1-17.112-1.967Z" transform="translate(-361.905 -1297.44)" fill="#00ce90"/></clipPath><clipPath id="e"><rect width="48.972" height="47.596" fill="#00ce90"/></clipPath><clipPath id="g"><rect width="45.996" height="46.756" fill="#00e7a1"/></clipPath><clipPath id="h"><path d="M71.368,1274.453a1.877,1.877,0,0,0,1.748,2.448,1.834,1.834,0,0,0,.382-.04l2.976-.84a1.843,1.843,0,0,1-.382.04,1.877,1.877,0,0,1-1.748-2.448Z" transform="translate(-71.278 -1273.613)" fill="#00ce90"/></clipPath></defs><g transform="translate(-917.898 -11956.719)"><g transform="translate(917.898 11986.549)"><g transform="translate(-0.001 0)" clip-path="url(#a)"><path d="M267.418,879.508h.23a17.629,17.629,0,0,0,3.641-6.246,16.409,16.409,0,0,0-.153-11.3,32.58,32.58,0,0,0-2.688-4.96,31.831,31.831,0,0,1-2.712-5.027,11.222,11.222,0,0,1-.628-2.323l-.173-.021a11.371,11.371,0,0,0,.644,2.405,31.954,31.954,0,0,0,2.725,5.055,32.432,32.432,0,0,1,2.675,4.933,16.241,16.241,0,0,1,.149,11.186,17.437,17.437,0,0,1-3.712,6.3" transform="translate(-247.132 -792.534)" fill="#fff"/><path d="M520.644,658.665c1.721.367,3.38.7,4.985.9.027-.053.054-.106.081-.159-1.617-.206-3.292-.537-5.031-.907a40.622,40.622,0,0,0-8.356-1.175,14.83,14.83,0,0,0-5.195.858,10.585,10.585,0,0,0-1.838.894c-1.521-.648-3.049-1.356-4.564-2.132,1.1-.828,2.209-1.639,3.332-2.422,8.332-5.818,16.02-9.116,23.449-10.052-.015-.054-.031-.109-.046-.163-7.448.944-15.154,4.25-23.5,10.077-1.146.8-2.28,1.629-3.4,2.475a56.289,56.289,0,0,1-5.014-2.914,43.672,43.672,0,0,1-9.536-8.369c11.891-1.334,24-3.015,33.884-9.622.375-.251.791-.547,1.222-.882l-.144-.1c-.413.32-.811.6-1.172.843-9.884,6.606-22.013,8.274-33.919,9.608a32.678,32.678,0,0,1-5.452-9.27c-2.1-5.555-1.987-11.007.3-14.957.1-.172.2-.34.313-.508-.1.044-.19.089-.285.135-.059.1-.117.191-.173.288-2.316,3.994-2.431,9.5-.316,15.1a32.8,32.8,0,0,0,5.41,9.233l-2.066.229c-2.479.274-5.043.557-7.533.877-.909.117-1.833.253-2.752.424a58.443,58.443,0,0,0-6.935-11.7l-.121.118a58.231,58.231,0,0,1,6.886,11.614c-4.011.765-7.9,2.2-9.984,5.549-1.942,3.126-1.94,7.446.005,12.841q.1.28.207.553h.18c-.077-.2-.154-.4-.229-.61-1.927-5.344-1.934-9.616-.021-12.7,2.055-3.307,5.928-4.726,9.916-5.481.7,1.472,1.368,2.956,2.036,4.431l.073.161c2.32,5.122,4.72,10.065,7.862,14.2h.21c-3.171-4.138-5.584-9.111-7.919-14.265l-.073-.16c-.662-1.463-1.329-2.934-2.019-4.394.9-.167,1.808-.3,2.7-.415,2.488-.32,5.051-.6,7.53-.877l2.176-.241a43.784,43.784,0,0,0,9.644,8.487,56.422,56.422,0,0,0,4.958,2.886c-2.858,2.162-5.638,4.436-8.352,6.657q-1.41,1.153-2.849,2.322h.266q1.356-1.1,2.689-2.193c2.733-2.236,5.533-4.527,8.411-6.7,1.506.775,3.026,1.481,4.539,2.128a12.522,12.522,0,0,0-4.775,5.828c-.128.31-.239.623-.342.937h.177c.1-.293.2-.584.321-.873a12.332,12.332,0,0,1,4.808-5.812,111,111,0,0,0,11.954,4.186l.134.04a23.085,23.085,0,0,1,4.4,1.633l.114-.13a23.027,23.027,0,0,0-4.471-1.664l-.134-.04a111.243,111.243,0,0,1-11.825-4.132,10.4,10.4,0,0,1,1.706-.817c4.359-1.615,9.193-.585,13.457.323" transform="translate(-430.693 -578.977)" fill="#fff"/><path d="M44.331,941.291a13.46,13.46,0,0,1-.908,9A15.493,15.493,0,0,1,39.773,955l.093.142a15.665,15.665,0,0,0,3.707-4.781,13.63,13.63,0,0,0,.921-9.114,11.568,11.568,0,0,0-3.4-5.91l-.108.129a11.4,11.4,0,0,1,3.343,5.821" transform="translate(-37.1 -872.485)" fill="#fff"/><path d="M421.583,19.016a18.73,18.73,0,0,0-4.141-7.2,22.3,22.3,0,0,0-8.1-5.428A34.051,34.051,0,0,0,396.3,4.247a51.008,51.008,0,0,0-12.857,1.7,38.206,38.206,0,0,0-11.376,4.861l4.185,11.49-2.243,1.817,3.253.956a47.774,47.774,0,0,1,8.776-3.661,30.345,30.345,0,0,1,8.406-1.134q4.449,0,6.736,2.145a6.846,6.846,0,0,1,2.286,5.178,9.935,9.935,0,0,1-2.346,6.5q-2.354,2.842-5.2,5.745-1.974,2.016-3.831,4.163a29.884,29.884,0,0,0-3.276,4.611,25.07,25.07,0,0,0-2.286,5.3,21.756,21.756,0,0,0-.865,6.373c0,.76.016,1.664.06,2.716.007.194.018.383.029.57h-3.075l3.356,2.269H402.36a10.836,10.836,0,0,1-.125-1.767V62.565a10.961,10.961,0,0,1,.865-4.228,21.873,21.873,0,0,1,2.165-3.978,29.388,29.388,0,0,1,2.905-3.6q1.606-1.707,3.091-3.222,1.974-2.016,4.076-4.29a33.72,33.72,0,0,0,3.71-4.8,26.942,26.942,0,0,0,2.656-5.494,19.339,19.339,0,0,0,1.054-6.5,26,26,0,0,0-1.175-7.446" transform="translate(-347.068 -3.962)" fill="#e49b31"/><path d="M346.685,15.517a30.582,30.582,0,0,0-8.308,1.1,47.775,47.775,0,0,0-8.673,3.543l-5.134-13.8a38.181,38.181,0,0,1,11.242-4.7A51.415,51.415,0,0,1,348.518,0,34.29,34.29,0,0,1,361.4,2.079a22.069,22.069,0,0,1,8.005,5.253A18.038,18.038,0,0,1,373.5,14.3a24.683,24.683,0,0,1,1.161,7.206,18.366,18.366,0,0,1-1.042,6.291A25.851,25.851,0,0,1,371,33.11a32.732,32.732,0,0,1-3.667,4.641q-2.076,2.2-4.029,4.152-1.467,1.467-3.054,3.118a28.553,28.553,0,0,0-2.871,3.48,21.036,21.036,0,0,0-2.14,3.85,10.419,10.419,0,0,0-.855,4.092V57.91a10.28,10.28,0,0,0,.123,1.71H338.378a17.1,17.1,0,0,1-.306-2.748c-.044-1.018-.06-1.893-.06-2.629a20.648,20.648,0,0,1,.855-6.168,24,24,0,0,1,2.259-5.13,28.936,28.936,0,0,1,3.237-4.462q1.832-2.076,3.786-4.029,2.81-2.81,5.134-5.56A9.5,9.5,0,0,0,355.6,22.6a6.564,6.564,0,0,0-2.259-5.011q-2.261-2.076-6.657-2.076" transform="translate(-302.759 -0.003)" fill="#fbc343"/><path d="M580.723,1030.129a8.406,8.406,0,0,1-2.857,6.813,9.89,9.89,0,0,1-12.925,0,9.56,9.56,0,0,1,0-13.627,9.929,9.929,0,0,1,10.7-1.289,9.175,9.175,0,0,1,5.08,8.1" transform="translate(-524.314 -952.403)" fill="#e49b31"/><path d="M533.224,1028.669a8.406,8.406,0,0,1-2.857,6.813,9.89,9.89,0,0,1-12.925,0,9.56,9.56,0,0,1,0-13.627,9.89,9.89,0,0,1,12.925,0,8.415,8.415,0,0,1,2.857,6.813" transform="translate(-480.006 -950.944)" fill="#fbc343"/></g></g><g transform="translate(996.42 11956.719)"><g transform="translate(0)" clip-path="url(#b)"><g transform="translate(0 0)"><g clip-path="url(#b)"><path d="M381.993,1299.407l-2.976.84a22.782,22.782,0,0,1-17.112-1.967l2.976-.84a22.783,22.783,0,0,0,17.112,1.967" transform="translate(-349.647 -1253.496)" fill="#0763e0"/></g></g><g transform="translate(12.258 43.944)"><g clip-path="url(#d)"><path d="M381.993,1299.407l-2.976.84a22.782,22.782,0,0,1-17.112-1.967l2.976-.84a22.783,22.783,0,0,0,17.112,1.967" transform="translate(-361.905 -1297.44)" fill="#00ce90"/></g></g><g transform="translate(0 0)"><g clip-path="url(#e)"><path d="M16.649,25.7l2.976-.84A23.092,23.092,0,0,0,2.979,47.531,23.73,23.73,0,0,0,7.421,61.025l-2.976.84A23.73,23.73,0,0,1,0,48.371,23.092,23.092,0,0,1,16.649,25.7" transform="translate(0 -24.021)" fill="#00ce90"/></g></g><path d="M147.416,1297.44l-2.976.84-7.624,1.6,2.976-.84Z" transform="translate(-132.182 -1253.496)" fill="#00ce90"/><path d="M76.9,1098.674l-2.976.84,1.941-6.133,2.976-.84Z" transform="translate(-71.424 -1055.537)" fill="#00ce90"/><g transform="translate(0 0)"><g clip-path="url(#b)"><g transform="translate(2.976 0)" opacity="0.882"><g clip-path="url(#g)"><path d="M110.689,0A23.472,23.472,0,0,1,133.874,23.42a22.78,22.78,0,0,1-33.737,20.521l-7.624,1.6a1.839,1.839,0,0,1-.382.04,1.877,1.877,0,0,1-1.748-2.448L92.323,37a23.73,23.73,0,0,1-4.442-13.494A22.953,22.953,0,0,1,110.525,0h.164" transform="translate(-87.879 0.002)" fill="#00e7a1"/></g></g></g></g><g transform="translate(2.414 43.137)"><g clip-path="url(#h)"><path d="M76.475,1276.022l-2.976.84a1.843,1.843,0,0,1-.382.04,1.877,1.877,0,0,1-1.748-2.448l2.976-.84a1.876,1.876,0,0,0,1.748,2.448,1.818,1.818,0,0,0,.382-.04" transform="translate(-71.278 -1273.614)" fill="#00ce90"/></g></g><path d="M431.987,402.491l-.558-2.086h-7.141l-.558,2.086h-7.5l6.094-20.913h11.071l6.095,20.913Zm-2.119-7.925-1.907-7.208h-.205l-1.907,7.208Z" transform="translate(-402.13 -368.654)" fill="#fff"/><path d="M438.1,405.138h-7.4l-.558,2.086H423l5.994-20.569H439.8l5.994,20.569h-7.14Zm-1.469-5.495-2-7.552h-.47l-2,7.552Z" transform="translate(-408.669 -373.56)" fill="#fff"/></g></g></g></svg>